<mxfile host="app.diagrams.net" agent="Mozilla/5.0 (Windows NT 10.0; Win64; x64; rv:134.0) Gecko/20100101 Firefox/134.0" version="26.0.11">
  <diagram name="Page-1" id="UxxddDOxbtOHlwxeoN-J">
    <mxGraphModel dx="993" dy="1618" grid="1" gridSize="10" guides="1" tooltips="1" connect="1" arrows="1" fold="1" page="1" pageScale="1" pageWidth="850" pageHeight="1100" math="0" shadow="0">
      <root>
        <mxCell id="0" />
        <mxCell id="1" parent="0" />
        <mxCell id="w9wIN5AZh1zGM-yqhCPk-17" value="PeerNetwork" style="swimlane;fillColor=#76608a;strokeColor=#432D57;labelBackgroundColor=none;startSize=23;fontColor=#ffffff;" parent="1" vertex="1">
          <mxGeometry x="100" y="-10" width="790" height="490" as="geometry" />
        </mxCell>
        <mxCell id="w9wIN5AZh1zGM-yqhCPk-2" value="LAN Discovery" style="swimlane;childLayout=stackLayout;resizeParent=1;resizeParentMax=0;horizontal=1;startSize=20;horizontalStack=0;html=1;fillColor=#a0522d;fontColor=#ffffff;strokeColor=#6D1F00;" parent="w9wIN5AZh1zGM-yqhCPk-17" vertex="1">
          <mxGeometry x="20" y="249" width="480" height="140" as="geometry" />
        </mxCell>
        <mxCell id="w9wIN5AZh1zGM-yqhCPk-3" value="LAN Channels" style="swimlane;startSize=20;horizontal=0;html=1;" parent="w9wIN5AZh1zGM-yqhCPk-2" vertex="1">
          <mxGeometry y="20" width="480" height="120" as="geometry" />
        </mxCell>
        <mxCell id="w9wIN5AZh1zGM-yqhCPk-4" value="" style="swimlane;childLayout=stackLayout;horizontal=1;fillColor=none;horizontalStack=1;resizeParent=1;resizeParentMax=0;resizeLast=0;collapsible=0;strokeColor=none;stackBorder=10;stackSpacing=-12;resizable=1;align=center;points=[];whiteSpace=wrap;html=1;" parent="w9wIN5AZh1zGM-yqhCPk-3" vertex="1">
          <mxGeometry x="20" width="450" height="120" as="geometry" />
        </mxCell>
        <mxCell id="w9wIN5AZh1zGM-yqhCPk-5" value="&lt;div&gt;A fixed number of&lt;/div&gt;&lt;div&gt;&amp;nbsp;ports are designated&lt;/div&gt;&lt;div&gt;for LAN&lt;br&gt;&lt;/div&gt;" style="shape=step;perimeter=stepPerimeter;fixedSize=1;points=[];whiteSpace=wrap;html=1;" parent="w9wIN5AZh1zGM-yqhCPk-4" vertex="1">
          <mxGeometry x="10" y="33" width="150" height="77" as="geometry" />
        </mxCell>
        <mxCell id="w9wIN5AZh1zGM-yqhCPk-6" value="&lt;div&gt;One of the ports is&amp;nbsp;&lt;/div&gt;&lt;div&gt;specific to outbound packets&lt;/div&gt;" style="shape=step;perimeter=stepPerimeter;fixedSize=1;points=[];whiteSpace=wrap;html=1;" parent="w9wIN5AZh1zGM-yqhCPk-4" vertex="1">
          <mxGeometry x="148" y="33" width="152" height="77" as="geometry" />
        </mxCell>
        <mxCell id="w9wIN5AZh1zGM-yqhCPk-7" value="&lt;div&gt;All ports except&lt;/div&gt;&lt;div&gt;outbound begin to &lt;br&gt;&lt;/div&gt;&lt;div&gt;transmit&lt;br&gt;&lt;/div&gt;" style="shape=step;perimeter=stepPerimeter;fixedSize=1;points=[];whiteSpace=wrap;html=1;" parent="w9wIN5AZh1zGM-yqhCPk-4" vertex="1">
          <mxGeometry x="288" y="33" width="152" height="77" as="geometry" />
        </mxCell>
        <mxCell id="l_1pX8ieLd4Eu-mDeOhK-5" value="Setup" style="shape=table;startSize=20;container=1;collapsible=0;childLayout=tableLayout;fixedRows=1;rowLines=0;fontStyle=1;strokeColor=#432D57;fontSize=12;align=center;fillColor=#76608a;fontColor=#ffffff;shadow=0;" parent="w9wIN5AZh1zGM-yqhCPk-17" vertex="1">
          <mxGeometry x="20" y="50" width="480" height="110" as="geometry" />
        </mxCell>
        <mxCell id="l_1pX8ieLd4Eu-mDeOhK-6" value="" style="shape=tableRow;horizontal=0;startSize=0;swimlaneHead=0;swimlaneBody=0;top=0;left=0;bottom=0;right=0;collapsible=0;dropTarget=0;fillColor=none;points=[[0,0.5],[1,0.5]];portConstraint=eastwest;strokeColor=inherit;fontSize=16;" parent="l_1pX8ieLd4Eu-mDeOhK-5" vertex="1">
          <mxGeometry y="20" width="480" height="30" as="geometry" />
        </mxCell>
        <mxCell id="l_1pX8ieLd4Eu-mDeOhK-7" value="LoadLocalAddresses();" style="shape=partialRectangle;html=1;whiteSpace=wrap;connectable=0;fillColor=none;top=0;left=0;bottom=0;right=0;overflow=hidden;pointerEvents=1;strokeColor=default;fontSize=12;align=left;" parent="l_1pX8ieLd4Eu-mDeOhK-6" vertex="1">
          <mxGeometry width="180" height="30" as="geometry">
            <mxRectangle width="180" height="30" as="alternateBounds" />
          </mxGeometry>
        </mxCell>
        <mxCell id="l_1pX8ieLd4Eu-mDeOhK-8" value="Gets the system&#39;s IPv4 and IPv6 address." style="shape=partialRectangle;html=1;whiteSpace=wrap;connectable=0;fillColor=none;top=0;left=0;bottom=0;right=0;align=left;spacingLeft=6;overflow=hidden;strokeColor=default;fontSize=12;" parent="l_1pX8ieLd4Eu-mDeOhK-6" vertex="1">
          <mxGeometry x="180" width="300" height="30" as="geometry">
            <mxRectangle width="300" height="30" as="alternateBounds" />
          </mxGeometry>
        </mxCell>
        <mxCell id="l_1pX8ieLd4Eu-mDeOhK-9" value="" style="shape=tableRow;horizontal=0;startSize=0;swimlaneHead=0;swimlaneBody=0;top=0;left=0;bottom=0;right=0;collapsible=0;dropTarget=0;fillColor=none;points=[[0,0.5],[1,0.5]];portConstraint=eastwest;strokeColor=inherit;fontSize=16;" parent="l_1pX8ieLd4Eu-mDeOhK-5" vertex="1">
          <mxGeometry y="50" width="480" height="30" as="geometry" />
        </mxCell>
        <mxCell id="l_1pX8ieLd4Eu-mDeOhK-10" value="BeginAcceptingInboundPeers();" style="shape=partialRectangle;html=1;whiteSpace=wrap;connectable=0;fillColor=none;top=0;left=0;bottom=0;right=0;overflow=hidden;strokeColor=default;fontSize=12;align=left;strokeWidth=3;shadow=0;" parent="l_1pX8ieLd4Eu-mDeOhK-9" vertex="1">
          <mxGeometry width="180" height="30" as="geometry">
            <mxRectangle width="180" height="30" as="alternateBounds" />
          </mxGeometry>
        </mxCell>
        <mxCell id="l_1pX8ieLd4Eu-mDeOhK-11" value="Opens a designated channel to accept inbound connections." style="shape=partialRectangle;html=1;whiteSpace=wrap;connectable=0;fillColor=none;top=0;left=0;bottom=0;right=0;align=left;spacingLeft=6;overflow=hidden;strokeColor=default;fontSize=12;strokeWidth=3;shadow=0;perimeterSpacing=4;" parent="l_1pX8ieLd4Eu-mDeOhK-9" vertex="1">
          <mxGeometry x="180" width="300" height="30" as="geometry">
            <mxRectangle width="300" height="30" as="alternateBounds" />
          </mxGeometry>
        </mxCell>
        <mxCell id="l_1pX8ieLd4Eu-mDeOhK-12" value="" style="shape=tableRow;horizontal=0;startSize=0;swimlaneHead=0;swimlaneBody=0;top=0;left=0;bottom=0;right=0;collapsible=0;dropTarget=0;fillColor=none;points=[[0,0.5],[1,0.5]];portConstraint=eastwest;strokeColor=inherit;fontSize=16;" parent="l_1pX8ieLd4Eu-mDeOhK-5" vertex="1">
          <mxGeometry y="80" width="480" height="30" as="geometry" />
        </mxCell>
        <mxCell id="l_1pX8ieLd4Eu-mDeOhK-13" value="BootDiscoveryChannels();" style="shape=partialRectangle;html=1;whiteSpace=wrap;connectable=0;fillColor=none;top=0;left=0;bottom=0;right=0;overflow=hidden;strokeColor=inherit;fontSize=12;align=left;" parent="l_1pX8ieLd4Eu-mDeOhK-12" vertex="1">
          <mxGeometry width="180" height="30" as="geometry">
            <mxRectangle width="180" height="30" as="alternateBounds" />
          </mxGeometry>
        </mxCell>
        <mxCell id="l_1pX8ieLd4Eu-mDeOhK-14" value="Starts up LAN discovery." style="shape=partialRectangle;html=1;whiteSpace=wrap;connectable=0;fillColor=none;top=0;left=0;bottom=0;right=0;align=left;spacingLeft=6;overflow=hidden;strokeColor=inherit;fontSize=12;" parent="l_1pX8ieLd4Eu-mDeOhK-12" vertex="1">
          <mxGeometry x="180" width="300" height="30" as="geometry">
            <mxRectangle width="300" height="30" as="alternateBounds" />
          </mxGeometry>
        </mxCell>
      </root>
    </mxGraphModel>
  </diagram>
</mxfile>
